<svg height="112" width="112" xmlns="http://www.w3.org/2000/svg"><path d="m2.2 37.3h5.5v23.1c0 3.3 1.2 6.1 4.1 7.9 2.9 1.9 6.1 2 9.2.3 3.3-1.8 4.7-4.8 4.8-8.4v-23h5.4v36.7h-5.3v-3c-1.6.9-3 2-4.5 2.6-7.8 3.1-18.5-.8-19.1-12.1-.4-8 0-16 0-24.2zm33.3 0h5.2v13.3c3.8-3.4 8-4.6 12.8-3.5 3.4.8 6.1 2.6 8.2 5.4 4 5.4 3.4 13.2-1.3 18.1-4.2 4.4-12.7 6.5-19.7.4v3.1h-5.2v-36.7zm14.3 32.7c5.1 0 9.2-4.2 9.2-9.4s-4.2-9.2-9.2-9.2c-5.1 0-9.2 4.1-9.2 9.2 0 5.2 4.1 9.4 9.2 9.4zm43.7-7.7h-21.5c0 2.6 2.2 5.6 5.1 6.9 3.8 1.7 7.5.7 11.4-3.1 1.2.9 2.4 1.8 3.8 2.8-1.2 1.7-2.7 3-4.5 4-7.6 4.1-18.9.9-21-9.5-1.2-5.8 1.4-11.6 6.5-14.8 4.6-2.8 11-2.5 15.3.8 4.1 3.2 5.4 7.7 5.1 12.8zm-5.4-4.2c-.6-3.9-4-6.7-8-6.8-4 0-7.5 2.9-8.1 6.8zm8.6-10.8h5.1v2.7c2.2-2.6 5-3.3 8.2-2.9v4.8h-1.6c-3.9 0-6.4 2.4-6.4 6.3v15.7h-5.2v-26.6z" fill="#122e1d"/></svg>