<svg height="72" width="72" xmlns="http://www.w3.org/2000/svg"><g fill="#00ac73"><path d="m15.66 31.31c-1.37 0-2.49 1.12-2.49 2.49s1.12 2.49 2.49 2.49 2.49-1.12 2.49-2.49-1.12-2.49-2.49-2.49zm0 3.78c-.71 0-1.29-.58-1.29-1.29s.58-1.29 1.29-1.29 1.29.58 1.29 1.29-.58 1.29-1.29 1.29zm23.24-14.68c4.47 0 8.11-3.64 8.11-8.11s-3.64-8.11-8.11-8.11-8.11 3.64-8.11 8.11 3.64 8.11 8.11 8.11zm0-15.02c3.81 0 6.91 3.1 6.91 6.91s-3.1 6.91-6.91 6.91-6.91-3.1-6.91-6.91 3.1-6.91 6.91-6.91z"/><path d="m69.27 32.08h-1.2c0 3.13-2.45 5.68-5.53 5.86-1.11-7.44-7.54-13.18-15.32-13.18l-20.63.03-1.57-.02c-.23-3.82-3.3-6.85-7.27-6.97l-.57.03v7.1c-1.62.16-7.19 1.25-9.45 8.63h-5v14.42h.6c2.48 0 4.93.81 6.91 2.28 3.68 2.74 9.98 8.59 10.71 17l.05.55h6.44l5.16-6.13h8.97l3.86 6.13h6.66l1.17-10.09c5.94-3.86 9.48-10.35 9.48-17.45v-.09c0-.35-.04-.7-.06-1.05 3.68-.25 6.6-3.31 6.6-7.06zm-16.9 24.78-.18.12-1.17 9.63h-4.93l-3.86-6.13h-10.19l-5.16 6.13h-4.79c-.99-8.58-7.37-14.51-11.13-17.32-2.02-1.51-4.5-2.39-7.03-2.51v-12.04h4.69l.12-.44c2.08-7.43 7.64-8.14 8.75-8.21l.86-.07.02-6.99c3.1.38 5.45 2.99 5.45 6.18v.73l2.75.03 20.64-.03c7.89 0 14.3 6.39 14.3 14.24v.11c0 6.74-3.42 12.93-9.15 16.55z"/><path d="m33.85 28.71h10.11v1.2h-10.11z"/></g></svg>