<svg enable-background="new 0 0 72 72" height="72" width="72" xmlns="http://www.w3.org/2000/svg"><g fill="#00ac73"><path d="m64.3 72h-.5c-4.1 0-7.4-3.3-7.4-7.4s3.3-7.4 7.4-7.4h.5c4.1 0 7.4 3.3 7.4 7.4s-3.3 7.4-7.4 7.4zm-.5-13.4c-3.3 0-6 2.7-6 6s2.7 6 6 6h.5c3.3 0 6-2.7 6-6s-2.7-6-6-6zm-11 13.4h-14.5v-14.7h14.5zm-13.1-1.4h11.7v-11.9h-11.7zm32.1-18.7h-33.5v-14.8h33.5zm-32.1-1.4h30.7v-12h-30.7z"/><path d="m38.356 44.454.766-1.172 11.382 7.445-.766 1.171zm5.353-6.044.766-1.171 20.505 13.411-.766 1.172zm14.577.015.767-1.171 12.302 8.046-.766 1.172zm-27.786 33.575h-27c-1.8 0-3.3-1.5-3.3-3.3v-40.9c0-1.8 1.5-3.3 3.3-3.3h26.9c1.8 0 3.3 1.5 3.3 3.3v40.9c0 1.8-1.4 3.3-3.2 3.3zm-27-46.1c-1 0-1.9.8-1.9 1.9v40.9c0 1 .8 1.9 1.9 1.9h26.9c1 0 1.9-.8 1.9-1.9v-40.9c0-1-.8-1.9-1.9-1.9zm51.7 7.1h-.4c-9.1 0-16.5-7.4-16.5-16.5s7.4-16.5 16.5-16.5h.4c9.1 0 16.5 7.4 16.5 16.5s-7.4 16.5-16.5 16.5zm-.4-31.6c-8.3 0-15.1 6.8-15.1 15.1s6.8 15.1 15.1 15.1h.4c8.3 0 15.1-6.8 15.1-15.1s-6.8-15.1-15.1-15.1h-.4zm-21.1 18.8h-33.5v-20.1h33.5zm-32.1-1.4h30.7v-17.3h-30.7z"/><circle cx="27.6" cy="15" r="1.6"/><circle cx="20.5" cy="15" r="1.6"/><circle cx="13.4" cy="15" r="1.6"/><circle cx="6.4" cy="15" r="1.6"/><circle cx="24" cy="10.1" r="1.6"/><circle cx="17" cy="10.1" r="1.6"/><circle cx="9.9" cy="10.1" r="1.6"/><circle cx="27.6" cy="5.3" r="1.6"/><circle cx="20.5" cy="5.3" r="1.6"/><circle cx="13.4" cy="5.3" r="1.6"/><circle cx="6.4" cy="5.3" r="1.6"/></g></svg>