<svg enable-background="new 0 0 72 72" height="72" width="72" xmlns="http://www.w3.org/2000/svg"><g fill="#00ac73"><path d="m50.5 16.2 3.8-3.7c1.1-1.1 1.6-1.7 1.6-2.6s-.7-1.6-1.7-1.6c-1.2 0-2 .8-2 2.1l-1.8-.1c0-2.2 1.7-3.8 3.8-3.8 2 0 3.6 1.4 3.6 3.3 0 1.3-.9 2.5-2.2 3.8l-2.1 2.1h4.4v1.8h-7.3v-1.3zm7.6-2.2 3.9-7.2h2l-3.6 6.8h3.1v-3h1.8v3h1.3v1.6h-1.3v2.3h-1.8v-2.3h-5.4z"/><path d="m71.2 58.5h-20.9v-1.5h20.1v-54.4h-69v23.8h-1.4v-24.6c0-.4.3-.8.8-.8h70.5c.4 0 .7.4.7.8v55.9c0 .5-.3.8-.8.8z"/><path d="m41.9 62.1v-1.5h4.1c.4 0 .8-.2 1-.4.3-.3.4-.6.4-1 0-.8-.7-1.5-1.5-1.5h-7.6v-1.5h7.6c1.6 0 3 1.3 3 3 0 .8-.3 1.5-.9 2.1s-1.3.9-2.1.9z"/><path d="m28.6 66.5v-1.5h14.4c.8 0 1.5-.7 1.4-1.5 0-.4-.2-.8-.4-1-.3-.3-.6-.4-1-.4h-14.4v-1.5h14.4c.8 0 1.5.3 2.1.9s.9 1.3.9 2.1c0 1.6-1.3 3-3 3zm0-8.8v-1.5h12.2c.4 0 .8-.2 1-.4.3-.3.4-.6.4-1s-.2-.8-.4-1c-.3-.3-.6-.4-1-.4h-17.7v-1.5h17.7c.8 0 1.5.3 2.1.9s.9 1.3.9 2.1-.3 1.5-.9 2.1-1.3.9-2.1.9z"/><path d="m23.1 53.3v-1.5h6.4c.8 0 1.5-.6 1.5-1.4 0-.4-.1-.8-.4-1.1s-.6-.4-1-.4h-7.9c-1.8 0-3.4 1.3-3.7 3.1v.1c-.1.4-.5.7-.9.6-2.1-.5-4.2-1.3-6.1-2.4-6.7-3.9-10.9-11.1-11-18.9v-5.1h1.5v5.1c.1 7.2 4 13.9 10.2 17.5 1.6.9 3.2 1.6 4.9 2 .7-2.1 2.7-3.6 5-3.6h7.9c.8 0 1.6.3 2.1.9.6.6.9 1.3.8 2.2 0 1.6-1.4 2.9-3.1 2.9zm-1.1 17.7c-3 0-6-.3-8.9-1-3.8-.9-7.5-2.3-11-4.3l.8-1.3c3.3 1.9 6.9 3.3 10.6 4.1 2.8.6 5.7 1 8.6.9h17.4c.8 0 1.5-.6 1.5-1.4 0-.4-.1-.8-.4-1.1s-.7-.5-1.1-.5h-2.5v-1.5h2.5c.8 0 1.6.3 2.2.9s.9 1.4.8 2.2c-.1 1.5-1.5 2.8-3 2.8zm21.8-45.1c-.9 0-1.4-.4-1.8-.7-.3-.3-.4-.4-.8-.4s-.5.1-.8.4c-.4.3-.9.7-1.8.7s-1.4-.4-1.8-.7c-.3-.3-.4-.4-.8-.4s-.5.1-.8.4c-.4.3-.9.7-1.8.7s-1.4-.4-1.8-.7c-.3-.3-.4-.4-.8-.4s-.5.1-.8.4c-.4.3-.9.7-1.8.7-.4 0-.8-.3-.8-.8v-23.3c0-.4.3-.8.8-.8h15.5c.4 0 .8.3.8.8v23.3c0 .5-.3.8-.7.8zm-7.8-2.6c.9 0 1.4.4 1.8.7.3.3.4.4.8.4s.5-.1.8-.4c.4-.3.9-.7 1.8-.7s1.4.4 1.8.7v-21.4h-14v21.4c.4-.3.9-.7 1.8-.7s1.4.4 1.8.7c.3.3.4.4.8.4s.5-.1.8-.4c.4-.3.9-.7 1.8-.7z"/></g></svg>