<svg enable-background="new 0 0 72 72" height="72" width="72" xmlns="http://www.w3.org/2000/svg"><g fill="#00ac73"><path d="m45.5 72c-.1 0-.2 0-.3-.1l-9-4.6h-.2l-9 4.6c-.3.2-.7.1-.9-.2l-5.5-8.5c0-.1-.1-.1-.2-.1l-10.1-.5c-.4 0-.7-.3-.7-.7l-.7-10.2c0-.1 0-.1-.1-.2l-8.5-5.5c-.3-.2-.4-.6-.2-.9l4.6-9v-.2l-4.6-9c-.2-.4-.1-.8.2-.9l8.5-5.5c.1 0 .1-.1.1-.2l.5-10.1c0-.4.3-.7.7-.7l10.1-.5c.1 0 .1 0 .2-.1l5.6-8.6c.2-.3.6-.4.9-.2l9 4.6h.2l9-4.6c.4-.2.8-.1.9.2l5.5 8.5c0 .1.1.1.2.1l10.1.5c.4 0 .7.3.7.7l.5 10.1c0 .1 0 .1.1.2l8.5 5.5c.3.2.4.6.2.9l-4.6 9v.2l4.6 9c.2.3.1.7-.2.9l-8.5 5.5c-.1 0-.1.1-.1.2l-.5 10.1c0 .4-.3.7-.7.7l-10.1.5c-.1 0-.1 0-.2.1l-5.5 8.7c-.1.2-.3.3-.5.3zm-9.5-6.1c.3 0 .5.1.7.2l8.5 4.3 5.2-8c.3-.4.8-.7 1.3-.7l9.5-.5.5-9.5c0-.5.3-1 .7-1.3l8-5.2-4.4-8.5c-.2-.5-.2-1 0-1.5l4.3-8.5-8-5.2c-.4-.3-.7-.8-.7-1.3l-.5-9.5-9.5-.5c-.5 0-1-.3-1.3-.7l-5.2-8-8.4 4.5c-.5.2-1 .2-1.5 0l-8.5-4.3-5.2 8c-.3.4-.8.7-1.3.7l-9.5.5-.5 9.5c0 .5-.3 1-.7 1.3l-8 5.2 4.5 8.4c.2.5.2 1 0 1.5l-4.3 8.5 8 5.2c.4.3.7.8.7 1.3l.5 9.5 9.5.5c.5 0 1 .3 1.3.7l5.2 8 8.5-4.3c.1-.3.3-.3.6-.3z"/><path d="m35.9 53.4c-.2 0-.4-.1-.5-.2l-16.8-16.8-.2-.2c-1-2.4-1-5.1 0-7.5s2.9-4.3 5.3-5.3c1.2-.5 2.5-.8 3.8-.8 3.5 0 6.7 1.8 8.4 4.8 1.8-2.9 4.9-4.8 8.4-4.8 1.3 0 2.6.3 3.8.8 2.4 1 4.3 2.9 5.3 5.3s1 5.1 0 7.5c0 .1-.1.2-.2.2l-16.8 16.8c-.1.1-.3.2-.5.2zm-16.2-17.9 16.2 16.1 16.3-16.1c.8-2 .8-4.3-.1-6.3-.9-2.1-2.5-3.7-4.6-4.6-1-.4-2.1-.6-3.2-.6-3.4 0-6.5 2-7.8 5.2-.1.3-.4.4-.7.4s-.5-.2-.7-.4c-1.1-3.1-4.1-5.2-7.5-5.2-1.1 0-2.2.2-3.2.6-2.1.9-3.7 2.5-4.6 4.6s-.9 4.3-.1 6.3z"/></g></svg>